<svg xmlns="http://www.w3.org/2000/svg" xml:space="preserve" style="fill-rule:evenodd;clip-rule:evenodd;stroke-linejoin:round;stroke-miterlimit:2" viewBox="0 0 160 160"><path d="M50 10v10H40v20H30v50H20v30h10v10h10v10h40v10h30v-10h10v-20h10v-20h10V70h-10V60h-10V40h-10V30h-10V20H90v10H80v30H70V20H60V10H50Z"/><path d="M40 90V40h10V20h10v40h10v30h10V80h10V30h10v10h10v20h10v10h10v30h-10v20h-10v20H80v-10H40v-10H30V90h10Z" style="fill:#cbdbfc"/><path d="M50 120h30v20h30v-40h20V80h-10v40h-20v10H50v-10Z" style="fill:#85aebd"/><path d="M70 90h10V80h10v20H80v10H70V90Z" style="fill:#85aebd"/><path d="M90 30h10v50H90zM40 60h20V20H50v20H40v20Z" style="fill:#76428a"/><path d="M80 80h10v20H80zM40 60h10v20H40z" style="fill:#fff"/><path d="M90 30h10v10H90zM50 20h10v10H50z" style="fill:#fbf236"/></svg>