<?xml version="1.0" encoding="UTF-8" standalone="no"?>
<!DOCTYPE svg PUBLIC "-//W3C//DTD SVG 1.1//EN" "http://www.w3.org/Graphics/SVG/1.1/DTD/svg11.dtd">
<svg width="100%" height="100%" viewBox="0 0 160 160" version="1.1" xmlns="http://www.w3.org/2000/svg" xmlns:xlink="http://www.w3.org/1999/xlink" xml:space="preserve" xmlns:serif="http://www.serif.com/" style="fill-rule:evenodd;clip-rule:evenodd;stroke-linejoin:round;stroke-miterlimit:2;">
    <style>
        @media (prefers-color-scheme: dark) {
            .a { fill: #f0f0f0 }
        }
    </style>
    <path class="a" fill="#0f0f0f" d="..." />
    <path d="M50,10L50,20L40,20L40,40L30,40L30,90L20,90L20,120L30,120L30,130L40,130L40,140L80,140L80,150L110,150L110,140L120,140L120,120L130,120L130,100L140,100L140,70L130,70L130,60L120,60L120,40L110,40L110,30L100,30L100,20L90,20L90,30L80,30L80,60L70,60L70,20L60,20L60,10L50,10Z"/>
    <path d="M40,90L40,40L50,40L50,20L60,20L60,60L70,60L70,90L80,90L80,80L90,80L90,30L100,30L100,40L110,40L110,60L120,60L120,70L130,70L130,100L120,100L120,120L110,120L110,140L80,140L80,130L40,130L40,120L30,120L30,90L40,90Z" style="fill:rgb(203,219,252);"/>
    <path d="M50,120L80,120L80,140L110,140L110,100L130,100L130,80L120,80L120,120L100,120L100,130L50,130L50,120Z" style="fill:rgb(133,174,189);"/>
    <path d="M70,90L80,90L80,80L90,80L90,100L80,100L80,110L70,110L70,90Z" style="fill:rgb(133,174,189);"/>
    <rect x="90" y="30" width="10" height="50" style="fill:rgb(118,66,138);"/>
    <path d="M40,60L60,60L60,20L50,20L50,40L40,40L40,60Z" style="fill:rgb(118,66,138);"/>
    <rect x="80" y="80" width="10" height="20" style="fill:white;"/>
    <rect x="40" y="60" width="10" height="20" style="fill:white;"/>
    <rect x="90" y="30" width="10" height="10" style="fill:rgb(251,242,54);"/>
    <rect x="50" y="20" width="10" height="10" style="fill:rgb(251,242,54);"/>
</svg>
